<svg width="727" height="727" viewBox="0 0 727 727" fill="none" xmlns="http://www.w3.org/2000/svg">
<g filter="url(#filter0_d_301_2)">
<rect x="4" width="719" height="719" rx="150" fill="#272727"/>
<path d="M192.523 194.534H165.052C157.467 194.534 151.317 188.384 151.317 180.799C151.317 173.213 157.467 167.063 165.052 167.063H192.523C200.109 167.063 206.258 173.213 206.258 180.799C206.258 188.384 200.109 194.534 192.523 194.534Z" fill="white" stroke="black"/>
<path d="M103.8 519.077V256.718C103.8 234.954 121.201 217.184 142.96 216.727L252.96 214.416C268.264 214.095 280.503 201.596 280.503 186.288C280.503 170.75 293.099 158.154 308.637 158.154H421.569C437.97 158.154 451.267 171.45 451.267 187.852C451.267 204.254 464.563 217.55 480.965 217.55H585C607.091 217.55 625 235.458 625 257.55V519.077C625 541.168 607.091 559.077 585 559.077H143.8C121.709 559.077 103.8 541.168 103.8 519.077Z" fill="url(#paint0_linear_301_2)"/>
<path d="M252.96 214.416L252.949 213.916L252.949 213.916L252.96 214.416ZM142.96 216.727L142.97 217.227L142.97 217.227L142.96 216.727ZM103.3 256.718V519.077H104.3V256.718H103.3ZM143.8 559.577H585V558.577H143.8V559.577ZM625.5 519.077V257.55H624.5V519.077H625.5ZM585 217.05H480.965V218.05H585V217.05ZM421.569 157.654H308.637V158.654H421.569V157.654ZM252.949 213.916L142.949 216.227L142.97 217.227L252.97 214.916L252.949 213.916ZM280.003 186.288C280.003 201.324 267.982 213.601 252.949 213.916L252.97 214.916C268.547 214.589 281.003 201.868 281.003 186.288H280.003ZM308.637 157.654C292.823 157.654 280.003 170.474 280.003 186.288H281.003C281.003 171.026 293.375 158.654 308.637 158.654V157.654ZM451.767 187.852C451.767 171.174 438.247 157.654 421.569 157.654V158.654C437.694 158.654 450.767 171.726 450.767 187.852H451.767ZM480.965 217.05C464.839 217.05 451.767 203.977 451.767 187.852H450.767C450.767 204.53 464.287 218.05 480.965 218.05V217.05ZM625.5 257.55C625.5 235.182 607.368 217.05 585 217.05V218.05C606.815 218.05 624.5 235.735 624.5 257.55H625.5ZM585 559.577C607.368 559.577 625.5 541.444 625.5 519.077H624.5C624.5 540.892 606.815 558.577 585 558.577V559.577ZM103.3 519.077C103.3 541.444 121.433 559.577 143.8 559.577V558.577C121.985 558.577 104.3 540.892 104.3 519.077H103.3ZM104.3 256.718C104.3 235.226 121.483 217.678 142.97 217.227L142.949 216.227C120.918 216.69 103.3 234.682 103.3 256.718H104.3Z" fill="black"/>
<ellipse cx="365.5" cy="378" rx="118.5" ry="119" fill="#250D09"/>
<circle cx="519.201" cy="289.939" r="24.1296" fill="#250D09"/>
<path fill-rule="evenodd" clip-rule="evenodd" d="M364.143 259.296V376.781L297.18 475.133C316.465 488.683 339.966 496.638 365.326 496.638C430.868 496.638 484 443.505 484 377.964C484 312.422 430.868 259.29 365.326 259.29C364.931 259.29 364.537 259.292 364.143 259.296Z" fill="#EB5B43"/>
<path fill-rule="evenodd" clip-rule="evenodd" d="M364.143 259.296V376.781L297.18 475.133C316.465 488.683 339.966 496.638 365.326 496.638C430.868 496.638 484 443.505 484 377.964C484 312.422 430.868 259.29 365.326 259.29C364.931 259.29 364.537 259.292 364.143 259.296Z" fill="url(#paint1_linear_301_2)"/>
</g>
<defs>
<filter id="filter0_d_301_2" x="0" y="0" width="727" height="727" filterUnits="userSpaceOnUse" color-interpolation-filters="sRGB">
<feFlood flood-opacity="0" result="BackgroundImageFix"/>
<feColorMatrix in="SourceAlpha" type="matrix" values="0 0 0 0 0 0 0 0 0 0 0 0 0 0 0 0 0 0 127 0" result="hardAlpha"/>
<feOffset dy="4"/>
<feGaussianBlur stdDeviation="2"/>
<feColorMatrix type="matrix" values="0 0 0 0 0 0 0 0 0 0 0 0 0 0 0 0 0 0 0.25 0"/>
<feBlend mode="normal" in2="BackgroundImageFix" result="effect1_dropShadow_301_2"/>
<feBlend mode="normal" in="SourceGraphic" in2="effect1_dropShadow_301_2" result="shape"/>
</filter>
<linearGradient id="paint0_linear_301_2" x1="364.4" y1="158.154" x2="364.4" y2="559.077" gradientUnits="userSpaceOnUse">
<stop stop-color="white"/>
<stop offset="1" stop-color="white" stop-opacity="0.85"/>
</linearGradient>
<linearGradient id="paint1_linear_301_2" x1="329.5" y1="537.5" x2="457.5" y2="270" gradientUnits="userSpaceOnUse">
<stop stop-color="#FF4444"/>
<stop offset="1" stop-color="#C20000"/>
</linearGradient>
</defs>
</svg>
